<?xml version="1.0" encoding="utf-8"?>
<!-- Generator: Adobe Illustrator 19.1.0, SVG Export Plug-In . SVG Version: 6.00 Build 0)  -->
<svg version="1.1" baseProfile="tiny" xmlns="http://www.w3.org/2000/svg" xmlns:xlink="http://www.w3.org/1999/xlink" x="0px"
	 y="0px" viewBox="0 0 206.3 148" xml:space="preserve">
<g id="houses" display="none">
	<path display="inline" fill="#696A6C" d="M209.8,455.9h-735.3V-16.7h735.3V455.9z M-522.1,452.5h728.5V-13.3h-728.5V452.5z"/>
	<polygon display="inline" fill="#696A6C" points="195.1,3.3 -4.7,3.3 -4.7,-0.1 193.4,-0.1 204.3,-14.5 209.4,-15.6 	"/>
	<rect x="192.6" y="1.6" display="inline" fill="#696A6C" width="3.4" height="147.4"/>
	
		<rect x="200.9" y="146.9" transform="matrix(0.7068 0.7074 -0.7074 0.7068 168.6528 -98.0897)" display="inline" fill="#696A6C" width="3.6" height="15.1"/>
	<rect x="-3.1" y="146.4" display="inline" fill="#696A6C" width="211.2" height="3.4"/>
</g>
<g id="Слой_3" display="none">
	<g display="inline">
		<g>
			<path fill="#FFFFFF" d="M197.8,139.8v-25c0-3-1.6-5.4-3.6-5.4h-71.9c-2,0-3.6,2.4-3.6,5.4v25c0,3,1.6,5.4,3.6,5.4h71.9
				C196.2,145.2,197.8,142.8,197.8,139.8z"/>
			<path fill="#696A6C" d="M194.3,146.9h-71.9c-3,0-5.3-3.1-5.3-7.1v-25c0-4,2.3-7.1,5.3-7.1h71.9c3,0,5.3,3.1,5.3,7.1v25
				C199.5,143.8,197.2,146.9,194.3,146.9z M122.3,111.2c-0.8,0-1.9,1.4-1.9,3.7v25c0,2.2,1.1,3.7,1.9,3.7h71.9
				c0.8,0,1.9-1.4,1.9-3.7v-25c0-2.2-1.1-3.7-1.9-3.7H122.3z"/>
		</g>
		<g>
			<path fill="#FFFFFF" d="M178.5,139.6h11c0.9,0,1.6-0.7,1.6-1.5v-21.4c0-0.8-0.7-1.5-1.6-1.5h-11c-0.9,0-1.6,0.7-1.6,1.5V138
				C176.9,138.9,177.6,139.6,178.5,139.6z"/>
			<path fill="#696A6C" d="M189.5,140.7h-11c-1.5,0-2.7-1.2-2.7-2.7v-21.4c0-1.5,1.2-2.7,2.7-2.7h11c1.5,0,2.7,1.2,2.7,2.7V138
				C192.2,139.5,191,140.7,189.5,140.7z M178.5,116.3c-0.2,0-0.4,0.2-0.4,0.4V138c0,0.2,0.2,0.4,0.4,0.4h11c0.2,0,0.4-0.2,0.4-0.4
				v-21.4c0-0.2-0.2-0.4-0.4-0.4H178.5z"/>
		</g>
		<g>
			<path fill="#FFFFFF" d="M180.3,144.4h-6.6l-1.9-9.2c-1.2-5.9-1.1-12,0.3-17.9l1.6-6.9h6.6l-1.6,6.9c-1.4,5.9-1.5,12-0.3,17.9
				L180.3,144.4z"/>
			<path fill="#696A6C" d="M181.6,145.4h-8.8l-2.1-10.1c-1.3-6-1.2-12.4,0.3-18.4l1.8-7.7h8.8l-2,8.2c-1.4,5.7-1.4,11.7-0.3,17.4
				L181.6,145.4z M174.5,143.3h4.5l-1.6-7.9c-1.3-6-1.2-12.4,0.3-18.4l1.3-5.6h-4.4l-1.4,6c-1.4,5.7-1.4,11.7-0.3,17.4L174.5,143.3z
				"/>
		</g>
		<g>
			<circle fill="#FFFFFF" cx="141.3" cy="47.4" r="32.5"/>
			<path fill="#696A6C" d="M141.3,81.7c-18.9,0-34.2-15.4-34.2-34.2s15.4-34.2,34.2-34.2s34.2,15.4,34.2,34.2S160.2,81.7,141.3,81.7
				z M141.3,16.6c-17,0-30.8,13.8-30.8,30.8s13.8,30.8,30.8,30.8s30.8-13.8,30.8-30.8S158.3,16.6,141.3,16.6z"/>
		</g>
		<polygon fill="#696A6C" points="68.4,146.5 61.2,146.5 118,111.2 119.9,114.3 		"/>
		<polygon fill="#696A6C" points="97.7,147 92,146.5 117.8,130.7 119.7,133.7 		"/>
		<rect x="98.7" y="125" fill="#696A6C" width="3.6" height="18.7"/>
		<rect x="85.2" y="133.5" fill="#696A6C" width="3.4" height="14.6"/>
		<path fill="#696A6C" d="M113,146.8h-3.6V128c0-4.1,3.7-7.5,8.2-7.5h0.8v3.6h-0.8c-2.5,0-4.6,1.7-4.6,3.9V146.8z"/>
		<g>
			<path fill="#FFFFFF" d="M52.7,120.7H36.9c-2.3,0-4.1-1.8-4.1-4.1v-18c0-2.3,1.8-4.1,4.1-4.1h15.9c2.3,0,4.1,1.8,4.1,4.1v18
				C56.8,118.9,55,120.7,52.7,120.7z"/>
			<path fill="#696A6C" d="M52.7,122.4H36.9c-3.2,0-5.8-2.6-5.8-5.8v-18c0-3.2,2.6-5.8,5.8-5.8h15.9c3.2,0,5.8,2.6,5.8,5.8v18
				C58.5,119.8,55.9,122.4,52.7,122.4z M36.9,96.2c-1.3,0-2.4,1.1-2.4,2.4v18c0,1.3,1.1,2.4,2.4,2.4h15.9c1.3,0,2.4-1.1,2.4-2.4v-18
				c0-1.3-1.1-2.4-2.4-2.4H36.9z"/>
		</g>
		<g>
			<path fill="#FFFFFF" d="M60.1,123.5c0,0-6.3-2.1-6.3-4V95.7c0-1.9,6.3-5.9,6.3-5.9c1.1,0,2,1.5,2,3.4v27
				C62.1,122,61.2,123.5,60.1,123.5z"/>
			<path fill="#696A6C" d="M60.1,125l-0.5-0.1c-3.4-1.1-7.4-3-7.4-5.5V95.7c0-2.2,3.8-5.1,7-7.2l0.4-0.2h0.4c2,0,3.5,2.1,3.5,4.9v27
				C63.7,122.9,62.2,125,60.1,125z M55.3,119.4c0.4,0.6,2.6,1.7,4.8,2.5c0.2-0.3,0.5-0.9,0.5-1.8v-27c0-0.8-0.2-1.3-0.4-1.6
				c-2.5,1.7-4.7,3.6-4.9,4.3L55.3,119.4z"/>
		</g>
		<rect x="55.9" y="92.2" fill="#696A6C" width="1.9" height="28.6"/>
		<g>
			<rect x="4" y="81" fill="#FFFFFF" width="32.1" height="57.4"/>
			<path fill="#696A6C" d="M37.8,140.1H2.3V79.3h35.5V140.1z M5.7,136.7h28.7v-54H5.7V136.7z"/>
		</g>
		<g>
			<rect x="4" y="105.6" fill="#FFFFFF" width="8.2" height="32.4"/>
			<path fill="#696A6C" d="M13.4,139.2H2.8v-34.8h10.6V139.2z M5.2,136.7H11v-30H5.2V136.7z"/>
		</g>
		<path fill="#696A6C" d="M20,102.6H6.3c-1.6,0-2.9-1.3-2.9-2.9v-1.2c0-1.6,1.3-2.9,2.9-2.9H20v1.9H6.3c-0.6,0-1,0.5-1,1v1.2
			c0,0.6,0.5,1,1,1H20V102.6z"/>
		<path fill="#696A6C" d="M20,97.5H6.3c-1.6,0-2.9-1.3-2.9-2.9v-1.2c0-1.6,1.3-2.9,2.9-2.9H20v1.9H6.3c-0.6,0-1,0.5-1,1v1.2
			c0,0.6,0.5,1,1,1H20V97.5z"/>
		<path fill="#696A6C" d="M20,92.4H6.3c-1.6,0-2.9-1.3-2.9-2.9v-1.2c0-1.6,1.3-2.9,2.9-2.9H20v1.9H6.3c-0.6,0-1,0.5-1,1v1.2
			c0,0.6,0.5,1,1,1H20V92.4z"/>
		<path fill="#696A6C" d="M18.4,91.7c-2.1-2.6-0.9-4.9,0.1-5.7l1.2,1.4l-0.6-0.7l0.6,0.7c-0.2,0.2-1.3,1.4,0.1,3.1L18.4,91.7z"/>
		<path fill="#696A6C" d="M18.4,96.8c-2.1-2.6-0.9-4.9,0.1-5.7l1.2,1.4l-0.6-0.7l0.6,0.7c-0.2,0.2-1.3,1.4,0.1,3.1L18.4,96.8z"/>
		<path fill="#696A6C" d="M18.4,101.9c-2.1-2.6-0.9-4.9,0.1-5.7l1.3,1.4c-0.2,0.2-1.3,1.4,0.1,3.1L18.4,101.9z"/>
		<g>
			<g>
				<path fill="#FFFFFF" d="M199.4,42.1V11.5c0-3.1-2.6-5.7-5.7-5.7h-28.8c-3.1,0-5.7,2.6-5.7,5.7v30.6c0,3.1,2.6,5.7,5.7,5.7h28.8
					C196.8,47.8,199.4,45.2,199.4,42.1z"/>
				<path fill="#696A6C" d="M193.7,49.5h-28.8c-4.1,0-7.4-3.3-7.4-7.4V11.5c0-4.1,3.3-7.4,7.4-7.4h28.8c4.1,0,7.4,3.3,7.4,7.4v30.6
					C201.1,46.2,197.8,49.5,193.7,49.5z M164.9,7.5c-2.2,0-4,1.8-4,4v30.6c0,2.2,1.8,4,4,4h28.8c2.2,0,4-1.8,4-4V11.5
					c0-2.2-1.8-4-4-4H164.9z"/>
			</g>
			<g>
				<path fill="#FFFFFF" d="M162.2,9.9c-2.3,0-4.1-1.8-4.1-4.1s1.8-4.1,4.1-4.1h34.2c2.3,0,4.1,1.8,4.1,4.1s-1.8,4.1-4.1,4.1H162.2z
					"/>
				<path fill="#696A6C" d="M196.4,11.6h-34.2c-3.2,0-5.8-2.6-5.8-5.8c0-3.2,2.6-5.8,5.8-5.8h34.2c3.2,0,5.8,2.6,5.8,5.8
					C202.2,9,199.6,11.6,196.4,11.6z M162.2,3.4c-1.3,0-2.4,1.1-2.4,2.4s1.1,2.4,2.4,2.4h34.2c1.3,0,2.4-1.1,2.4-2.4
					s-1.1-2.4-2.4-2.4H162.2z"/>
			</g>
			<g>
				<path fill="#FFFFFF" d="M162.2,51.9c-2.3,0-4.1-1.8-4.1-4.1c0-2.3,1.8-4.1,4.1-4.1h34.2c2.3,0,4.1,1.8,4.1,4.1
					c0,2.3-1.8,4.1-4.1,4.1H162.2z"/>
				<path fill="#696A6C" d="M196.4,53.6h-34.2c-3.2,0-5.8-2.6-5.8-5.8c0-3.2,2.6-5.8,5.8-5.8h34.2c3.2,0,5.8,2.6,5.8,5.8
					C202.2,51,199.6,53.6,196.4,53.6z M162.2,45.4c-1.3,0-2.4,1.1-2.4,2.4s1.1,2.4,2.4,2.4h34.2c1.3,0,2.4-1.1,2.4-2.4
					s-1.1-2.4-2.4-2.4H162.2z"/>
			</g>
			<g>
				<path fill="#FFFFFF" d="M196.4,9.9c0-2.3,1.8-4.1,4.1-4.1c2.3,0,4.1,1.8,4.1,4.1v34.2c0,2.3-1.8,4.1-4.1,4.1
					c-2.3,0-4.1-1.8-4.1-4.1V9.9z"/>
				<path fill="#696A6C" d="M200.5,49.9c-3.2,0-5.8-2.6-5.8-5.8V9.9c0-3.2,2.6-5.8,5.8-5.8c3.2,0,5.8,2.6,5.8,5.8v34.2
					C206.3,47.3,203.7,49.9,200.5,49.9z M200.5,7.5c-1.3,0-2.4,1.1-2.4,2.4v34.2c0,1.3,1.1,2.4,2.4,2.4c1.3,0,2.4-1.1,2.4-2.4V9.9
					C202.9,8.6,201.8,7.5,200.5,7.5z"/>
			</g>
		</g>
		
			<rect x="147.7" y="131.9" transform="matrix(0.7071 0.7071 -0.7071 0.7071 141.6281 -75.9162)" fill="#696A6C" width="29.5" height="2.1"/>
		<rect x="110.8" y="34.5" fill="#696A6C" width="47" height="3.4"/>
		<rect x="110.7" y="54.1" fill="#696A6C" width="61.5" height="3.4"/>
		<rect x="118.2" y="68.6" fill="#696A6C" width="46.7" height="3.5"/>
		<rect x="121.3" y="20.1" fill="#696A6C" width="37.9" height="3.5"/>
		<rect x="110.7" y="40.3" fill="#696A6C" width="47.1" height="3.4"/>
		<rect x="111.9" y="59.6" fill="#696A6C" width="58.4" height="3.4"/>
	</g>
</g>
<g id="Слой_3__x28_копия_x29_">
	<path fill="#FFFFFF" d="M197.8,139.8v-25c0-3-1.6-5.4-3.6-5.4h-71.9c-2,0-3.6,2.4-3.6,5.4v25c0,3,1.6,5.4,3.6,5.4h71.9
		C196.2,145.2,197.8,142.8,197.8,139.8z"/>
	<path fill="#E30011" d="M194.3,146.9h-71.9c-3,0-5.3-3.1-5.3-7.1v-25c0-4,2.3-7.1,5.3-7.1h71.9c3,0,5.3,3.1,5.3,7.1v25
		C199.5,143.8,197.2,146.9,194.3,146.9z M122.3,111.2c-0.8,0-1.9,1.4-1.9,3.7v25c0,2.2,1.1,3.7,1.9,3.7h71.9c0.8,0,1.9-1.4,1.9-3.7
		v-25c0-2.2-1.1-3.7-1.9-3.7H122.3z"/>
	<path fill="#FFFFFF" d="M178.5,139.6h11c0.9,0,1.6-0.7,1.6-1.5v-21.4c0-0.8-0.7-1.5-1.6-1.5h-11c-0.9,0-1.6,0.7-1.6,1.5V138
		C176.9,138.9,177.6,139.6,178.5,139.6z"/>
	<path fill="#E30011" d="M189.5,140.7h-11c-1.5,0-2.7-1.2-2.7-2.7v-21.4c0-1.5,1.2-2.7,2.7-2.7h11c1.5,0,2.7,1.2,2.7,2.7V138
		C192.2,139.5,191,140.7,189.5,140.7z M178.5,116.3c-0.2,0-0.4,0.2-0.4,0.4V138c0,0.2,0.2,0.4,0.4,0.4h11c0.2,0,0.4-0.2,0.4-0.4
		v-21.4c0-0.2-0.2-0.4-0.4-0.4H178.5z"/>
	<path fill="#FFFFFF" d="M180.3,144.4h-6.6l-1.9-9.2c-1.2-5.9-1.1-12,0.3-17.9l1.6-6.9h6.6l-1.6,6.9c-1.4,5.9-1.5,12-0.3,17.9
		L180.3,144.4z"/>
	<path fill="#E30011" d="M181.6,145.4h-8.8l-2.1-10.1c-1.3-6-1.2-12.4,0.3-18.4l1.8-7.7h8.8l-2,8.2c-1.4,5.7-1.4,11.7-0.3,17.4
		L181.6,145.4z M174.5,143.3h4.5l-1.6-7.9c-1.3-6-1.2-12.4,0.3-18.4l1.3-5.6h-4.4l-1.4,6c-1.4,5.7-1.4,11.7-0.3,17.4L174.5,143.3z"
		/>
	<circle fill="#FFFFFF" cx="141.3" cy="47.4" r="32.5"/>
	<path fill="#E30011" d="M141.3,81.7c-18.9,0-34.2-15.4-34.2-34.2s15.4-34.2,34.2-34.2s34.2,15.4,34.2,34.2S160.2,81.7,141.3,81.7z
		 M141.3,16.6c-17,0-30.8,13.8-30.8,30.8s13.8,30.8,30.8,30.8s30.8-13.8,30.8-30.8S158.3,16.6,141.3,16.6z"/>
	<polygon fill="#E30011" points="68.4,146.5 61.2,146.5 118,111.2 119.9,114.3 	"/>
	<polygon fill="#E30011" points="97.7,147 92,146.5 117.8,130.7 119.7,133.7 	"/>
	<rect x="98.7" y="125" fill="#E30011" width="3.6" height="18.7"/>
	<rect x="85.2" y="133.5" fill="#E30011" width="3.4" height="14.6"/>
	<path fill="#E30011" d="M113,146.8h-3.6V128c0-4.1,3.7-7.5,8.2-7.5h0.8v3.6h-0.8c-2.5,0-4.6,1.7-4.6,3.9V146.8z"/>
	<path fill="#FFFFFF" d="M52.7,120.7H36.9c-2.3,0-4.1-1.8-4.1-4.1v-18c0-2.3,1.8-4.1,4.1-4.1h15.9c2.3,0,4.1,1.8,4.1,4.1v18
		C56.8,118.9,55,120.7,52.7,120.7z"/>
	<path fill="#E30011" d="M52.7,122.4H36.9c-3.2,0-5.8-2.6-5.8-5.8v-18c0-3.2,2.6-5.8,5.8-5.8h15.9c3.2,0,5.8,2.6,5.8,5.8v18
		C58.5,119.8,55.9,122.4,52.7,122.4z M36.9,96.2c-1.3,0-2.4,1.1-2.4,2.4v18c0,1.3,1.1,2.4,2.4,2.4h15.9c1.3,0,2.4-1.1,2.4-2.4v-18
		c0-1.3-1.1-2.4-2.4-2.4H36.9z"/>
	<path fill="#FFFFFF" d="M60.1,123.5c0,0-6.3-2.1-6.3-4V95.7c0-1.9,6.3-5.9,6.3-5.9c1.1,0,2,1.5,2,3.4v27
		C62.1,122,61.2,123.5,60.1,123.5z"/>
	<path fill="#E30011" d="M60.1,125l-0.5-0.1c-3.4-1.1-7.4-3-7.4-5.5V95.7c0-2.2,3.8-5.1,7-7.2l0.4-0.2h0.4c2,0,3.5,2.1,3.5,4.9v27
		C63.7,122.9,62.2,125,60.1,125z M55.3,119.4c0.4,0.6,2.6,1.7,4.8,2.5c0.2-0.3,0.5-0.9,0.5-1.8v-27c0-0.8-0.2-1.3-0.4-1.6
		c-2.5,1.7-4.7,3.6-4.9,4.3L55.3,119.4z"/>
	<rect x="55.9" y="92.2" fill="#E30011" width="1.9" height="28.6"/>
	<rect x="4" y="81" fill="#FFFFFF" width="32.1" height="57.4"/>
	<path fill="#E30011" d="M37.8,140.1H2.3V79.3h35.5V140.1z M5.7,136.7h28.7v-54H5.7V136.7z"/>
	<rect x="4" y="105.6" fill="#FFFFFF" width="8.2" height="32.4"/>
	<path fill="#E30011" d="M13.4,139.2H2.8v-34.8h10.6V139.2z M5.2,136.7H11v-30H5.2V136.7z"/>
	<path fill="#E30011" d="M20,102.6H6.3c-1.6,0-2.9-1.3-2.9-2.9v-1.2c0-1.6,1.3-2.9,2.9-2.9H20v1.9H6.3c-0.6,0-1,0.5-1,1v1.2
		c0,0.6,0.5,1,1,1H20V102.6z"/>
	<path fill="#E30011" d="M20,97.5H6.3c-1.6,0-2.9-1.3-2.9-2.9v-1.2c0-1.6,1.3-2.9,2.9-2.9H20v1.9H6.3c-0.6,0-1,0.5-1,1v1.2
		c0,0.6,0.5,1,1,1H20V97.5z"/>
	<path fill="#E30011" d="M20,92.4H6.3c-1.6,0-2.9-1.3-2.9-2.9v-1.2c0-1.6,1.3-2.9,2.9-2.9H20v1.9H6.3c-0.6,0-1,0.5-1,1v1.2
		c0,0.6,0.5,1,1,1H20V92.4z"/>
	<path fill="#E30011" d="M18.4,91.7c-2.1-2.6-0.9-4.9,0.1-5.7l1.2,1.4l-0.6-0.7l0.6,0.7c-0.2,0.2-1.3,1.4,0.1,3.1L18.4,91.7z"/>
	<path fill="#E30011" d="M18.4,96.8c-2.1-2.6-0.9-4.9,0.1-5.7l1.2,1.4l-0.6-0.7l0.6,0.7c-0.2,0.2-1.3,1.4,0.1,3.1L18.4,96.8z"/>
	<path fill="#E30011" d="M18.4,101.9c-2.1-2.6-0.9-4.9,0.1-5.7l1.3,1.4c-0.2,0.2-1.3,1.4,0.1,3.1L18.4,101.9z"/>
	<path fill="#FFFFFF" d="M199.4,42.1V11.5c0-3.1-2.6-5.7-5.7-5.7h-28.8c-3.1,0-5.7,2.6-5.7,5.7v30.6c0,3.1,2.6,5.7,5.7,5.7h28.8
		C196.8,47.8,199.4,45.2,199.4,42.1z"/>
	<path fill="#E30011" d="M193.7,49.5h-28.8c-4.1,0-7.4-3.3-7.4-7.4V11.5c0-4.1,3.3-7.4,7.4-7.4h28.8c4.1,0,7.4,3.3,7.4,7.4v30.6
		C201.1,46.2,197.8,49.5,193.7,49.5z M164.9,7.5c-2.2,0-4,1.8-4,4v30.6c0,2.2,1.8,4,4,4h28.8c2.2,0,4-1.8,4-4V11.5c0-2.2-1.8-4-4-4
		H164.9z"/>
	<path fill="#FFFFFF" d="M162.2,9.9c-2.3,0-4.1-1.8-4.1-4.1s1.8-4.1,4.1-4.1h34.2c2.3,0,4.1,1.8,4.1,4.1s-1.8,4.1-4.1,4.1H162.2z"/>
	<path fill="#E30011" d="M196.4,11.6h-34.2c-3.2,0-5.8-2.6-5.8-5.8c0-3.2,2.6-5.8,5.8-5.8h34.2c3.2,0,5.8,2.6,5.8,5.8
		C202.2,9,199.6,11.6,196.4,11.6z M162.2,3.4c-1.3,0-2.4,1.1-2.4,2.4s1.1,2.4,2.4,2.4h34.2c1.3,0,2.4-1.1,2.4-2.4s-1.1-2.4-2.4-2.4
		H162.2z"/>
	<path fill="#FFFFFF" d="M162.2,51.9c-2.3,0-4.1-1.8-4.1-4.1c0-2.3,1.8-4.1,4.1-4.1h34.2c2.3,0,4.1,1.8,4.1,4.1
		c0,2.3-1.8,4.1-4.1,4.1H162.2z"/>
	<path fill="#E30011" d="M196.4,53.6h-34.2c-3.2,0-5.8-2.6-5.8-5.8c0-3.2,2.6-5.8,5.8-5.8h34.2c3.2,0,5.8,2.6,5.8,5.8
		C202.2,51,199.6,53.6,196.4,53.6z M162.2,45.4c-1.3,0-2.4,1.1-2.4,2.4s1.1,2.4,2.4,2.4h34.2c1.3,0,2.4-1.1,2.4-2.4
		s-1.1-2.4-2.4-2.4H162.2z"/>
	<path fill="#FFFFFF" d="M196.4,9.9c0-2.3,1.8-4.1,4.1-4.1c2.3,0,4.1,1.8,4.1,4.1v34.2c0,2.3-1.8,4.1-4.1,4.1
		c-2.3,0-4.1-1.8-4.1-4.1V9.9z"/>
	<path fill="#E30011" d="M200.5,49.9c-3.2,0-5.8-2.6-5.8-5.8V9.9c0-3.2,2.6-5.8,5.8-5.8c3.2,0,5.8,2.6,5.8,5.8v34.2
		C206.3,47.3,203.7,49.9,200.5,49.9z M200.5,7.5c-1.3,0-2.4,1.1-2.4,2.4v34.2c0,1.3,1.1,2.4,2.4,2.4c1.3,0,2.4-1.1,2.4-2.4V9.9
		C202.9,8.6,201.8,7.5,200.5,7.5z"/>
	
		<rect x="147.7" y="131.9" transform="matrix(0.7071 0.7071 -0.7071 0.7071 141.6281 -75.9162)" fill="#E30011" width="29.5" height="2.1"/>
	<rect x="110.8" y="34.5" fill="#E30011" width="47" height="3.4"/>
	<rect x="110.7" y="54.1" fill="#E30011" width="61.5" height="3.4"/>
	<rect x="118.2" y="68.6" fill="#E30011" width="46.7" height="3.5"/>
	<rect x="121.3" y="20.1" fill="#E30011" width="37.9" height="3.5"/>
	<rect x="110.7" y="40.3" fill="#E30011" width="47.1" height="3.4"/>
	<rect x="111.9" y="59.6" fill="#E30011" width="58.4" height="3.4"/>
</g>
<g id="Слой_2" display="none">
	<g display="inline">
		<g>
			<circle fill="#FFFFFF" cx="141.4" cy="50.4" r="32.5"/>
			<path fill="#E30011" d="M141.4,84.7c-18.9,0-34.2-15.4-34.2-34.2s15.4-34.2,34.2-34.2s34.2,15.4,34.2,34.2S160.3,84.7,141.4,84.7
				z M141.4,19.6c-17,0-30.8,13.8-30.8,30.8s13.8,30.8,30.8,30.8s30.8-13.8,30.8-30.8S158.4,19.6,141.4,19.6z"/>
		</g>
		<g>
			<path fill="#FFFFFF" d="M52.8,120.7H37c-2.3,0-4.1-1.8-4.1-4.1v-18c0-2.3,1.8-4.1,4.1-4.1h15.9c2.3,0,4.1,1.8,4.1,4.1v18
				C56.9,118.9,55.1,120.7,52.8,120.7z"/>
			<path fill="#E30011" d="M52.8,122.4H37c-3.2,0-5.8-2.6-5.8-5.8v-18c0-3.2,2.6-5.8,5.8-5.8h15.9c3.2,0,5.8,2.6,5.8,5.8v18
				C58.6,119.8,56,122.4,52.8,122.4z M37,96.2c-1.3,0-2.4,1.1-2.4,2.4v18c0,1.3,1.1,2.4,2.4,2.4h15.9c1.3,0,2.4-1.1,2.4-2.4v-18
				c0-1.3-1.1-2.4-2.4-2.4H37z"/>
		</g>
		<g>
			<path fill="#FFFFFF" d="M60.2,123.5c0,0-6.3-2.1-6.3-4V95.7c0-1.9,6.3-5.9,6.3-5.9c1.1,0,2,1.5,2,3.4v27
				C62.3,122,61.4,123.5,60.2,123.5z"/>
			<path fill="#E30011" d="M60.2,125l-0.5-0.1c-3.4-1.1-7.4-3-7.4-5.5V95.7c0-2.2,3.8-5.1,7-7.2l0.4-0.2h0.4c2,0,3.5,2.1,3.5,4.9v27
				C63.8,122.9,62.3,125,60.2,125z M55.4,119.3c0.4,0.6,2.6,1.7,4.8,2.5c0.2-0.3,0.5-0.9,0.5-1.8v-27c0-0.8-0.2-1.3-0.4-1.6
				c-2.5,1.7-4.7,3.6-4.9,4.3L55.4,119.3z"/>
		</g>
		<rect x="56" y="92.2" fill="#E30011" width="1.9" height="28.6"/>
		<g>
			<rect x="4.1" y="81" fill="#FFFFFF" width="32.1" height="57.4"/>
			<path fill="#E30011" d="M37.9,140.1H2.4V79.3h35.5V140.1z M5.8,136.7h28.7v-54H5.8V136.7z"/>
		</g>
		<g>
			<rect x="4.1" y="105.5" fill="#FFFFFF" width="8.2" height="32.4"/>
			<path fill="#E30011" d="M13.5,139.1H2.9v-34.8h10.6V139.1z M5.3,136.7h5.8v-30H5.3V136.7z"/>
		</g>
		<path fill="#E30011" d="M20.1,102.6H6.4c-1.6,0-2.9-1.3-2.9-2.9v-1.2c0-1.6,1.3-2.9,2.9-2.9h13.7v1.9H6.4c-0.6,0-1,0.5-1,1v1.2
			c0,0.6,0.5,1,1,1h13.7V102.6z"/>
		<path fill="#E30011" d="M20.1,97.5H6.4c-1.6,0-2.9-1.3-2.9-2.9v-1.2c0-1.6,1.3-2.9,2.9-2.9h13.7v1.9H6.4c-0.6,0-1,0.5-1,1v1.2
			c0,0.6,0.5,1,1,1h13.7V97.5z"/>
		<path fill="#E30011" d="M20.1,92.4H6.4c-1.6,0-2.9-1.3-2.9-2.9v-1.2c0-1.6,1.3-2.9,2.9-2.9h13.7v1.9H6.4c-0.6,0-1,0.5-1,1v1.2
			c0,0.6,0.5,1,1,1h13.7V92.4z"/>
		<path fill="#E30011" d="M18.5,91.7c-2.1-2.6-0.9-4.9,0.1-5.7l1.3,1.4c-0.2,0.2-1.3,1.4,0.1,3.1L18.5,91.7z"/>
		<path fill="#E30011" d="M18.5,96.8c-2.1-2.6-0.9-4.9,0.1-5.7l1.2,1.4l-0.6-0.7l0.6,0.7c-0.2,0.2-1.3,1.4,0.1,3.1L18.5,96.8z"/>
		<path fill="#E30011" d="M18.5,101.9c-2.1-2.6-0.9-4.9,0.1-5.7l1.2,1.4l-0.6-0.7l0.6,0.7c-0.2,0.2-1.3,1.4,0.1,3.1L18.5,101.9z"/>
		<g>
			<g>
				<path fill="#FFFFFF" d="M199.5,45.1V14.5c0-3.1-2.6-5.7-5.7-5.7H165c-3.1,0-5.7,2.6-5.7,5.7v30.6c0,3.1,2.6,5.7,5.7,5.7h28.8
					C196.9,50.8,199.5,48.2,199.5,45.1z"/>
				<path fill="#E30011" d="M193.8,52.5H165c-4.1,0-7.4-3.3-7.4-7.4V14.5c0-4.1,3.3-7.4,7.4-7.4h28.8c4.1,0,7.4,3.3,7.4,7.4v30.6
					C201.2,49.1,197.9,52.5,193.8,52.5z M165,10.5c-2.2,0-4,1.8-4,4v30.6c0,2.2,1.8,4,4,4h28.8c2.2,0,4-1.8,4-4V14.5
					c0-2.2-1.8-4-4-4H165z"/>
			</g>
			<g>
				<path fill="#FFFFFF" d="M162.3,12.9c-2.3,0-4.1-1.8-4.1-4.1s1.8-4.1,4.1-4.1h34.2c2.3,0,4.1,1.8,4.1,4.1s-1.8,4.1-4.1,4.1H162.3
					z"/>
				<path fill="#E30011" d="M196.5,14.6h-34.2c-3.2,0-5.8-2.6-5.8-5.8s2.6-5.8,5.8-5.8h34.2c3.2,0,5.8,2.6,5.8,5.8
					S199.7,14.6,196.5,14.6z M162.3,6.4c-1.3,0-2.4,1.1-2.4,2.4s1.1,2.4,2.4,2.4h34.2c1.3,0,2.4-1.1,2.4-2.4s-1.1-2.4-2.4-2.4H162.3
					z"/>
			</g>
			<g>
				<path fill="#FFFFFF" d="M162.3,54.9c-2.3,0-4.1-1.8-4.1-4.1c0-2.3,1.8-4.1,4.1-4.1h34.2c2.3,0,4.1,1.8,4.1,4.1
					c0,2.3-1.8,4.1-4.1,4.1H162.3z"/>
				<path fill="#E30011" d="M196.5,56.6h-34.2c-3.2,0-5.8-2.6-5.8-5.8c0-3.2,2.6-5.8,5.8-5.8h34.2c3.2,0,5.8,2.6,5.8,5.8
					C202.3,54,199.7,56.6,196.5,56.6z M162.3,48.4c-1.3,0-2.4,1.1-2.4,2.4c0,1.3,1.1,2.4,2.4,2.4h34.2c1.3,0,2.4-1.1,2.4-2.4
					c0-1.3-1.1-2.4-2.4-2.4H162.3z"/>
			</g>
			<g>
				<path fill="#FFFFFF" d="M196.5,12.9c0-2.3,1.8-4.1,4.1-4.1c2.3,0,4.1,1.8,4.1,4.1v34.2c0,2.3-1.8,4.1-4.1,4.1
					c-2.3,0-4.1-1.8-4.1-4.1V12.9z"/>
				<path fill="#E30011" d="M200.6,52.9c-3.2,0-5.8-2.6-5.8-5.8V12.9c0-3.2,2.6-5.8,5.8-5.8c3.2,0,5.8,2.6,5.8,5.8v34.2
					C206.4,50.3,203.8,52.9,200.6,52.9z M200.6,10.5c-1.3,0-2.4,1.1-2.4,2.4v34.2c0,1.3,1.1,2.4,2.4,2.4c1.3,0,2.4-1.1,2.4-2.4V12.9
					C203,11.6,201.9,10.5,200.6,10.5z"/>
			</g>
		</g>
		<rect x="110.9" y="37.5" fill="#E30011" width="47" height="3.4"/>
		<rect x="111" y="57.3" fill="#E30011" width="61.5" height="3.4"/>
		<rect x="118.5" y="71.8" fill="#E30011" width="46.7" height="3.5"/>
		<rect x="121.4" y="23.1" fill="#E30011" width="37.9" height="3.5"/>
		<rect x="110.8" y="43.3" fill="#E30011" width="47.1" height="3.4"/>
		<rect x="112.2" y="62.8" fill="#E30011" width="58.4" height="3.4"/>
		<g>
			<path fill="#FFFFFF" d="M197.6,139.8v-25c0-3-1.6-5.4-3.6-5.4h-71.9c-2,0-3.6,2.4-3.6,5.4v25c0,3,1.6,5.4,3.6,5.4H194
				C196,145.2,197.6,142.8,197.6,139.8z"/>
			<path fill="#E30011" d="M194,146.9h-71.9c-3,0-5.3-3.1-5.3-7.1v-25c0-4,2.3-7.1,5.3-7.1H194c3,0,5.3,3.1,5.3,7.1v25
				C199.3,143.8,197,146.9,194,146.9z M122.1,111.2c-0.8,0-1.9,1.4-1.9,3.7v25c0,2.2,1.1,3.7,1.9,3.7H194c0.8,0,1.9-1.4,1.9-3.7v-25
				c0-2.2-1.1-3.7-1.9-3.7H122.1z"/>
		</g>
		<g>
			<path fill="#FFFFFF" d="M178.3,139.6h11c0.9,0,1.6-0.7,1.6-1.5v-21.4c0-0.8-0.7-1.5-1.6-1.5h-11c-0.9,0-1.6,0.7-1.6,1.5V138
				C176.7,138.9,177.4,139.6,178.3,139.6z"/>
			<path fill="#E30011" d="M189.2,140.7h-11c-1.5,0-2.7-1.2-2.7-2.7v-21.4c0-1.5,1.2-2.7,2.7-2.7h11c1.5,0,2.7,1.2,2.7,2.7V138
				C192,139.5,190.8,140.7,189.2,140.7z M178.3,116.3c-0.2,0-0.4,0.2-0.4,0.4V138c0,0.2,0.2,0.4,0.4,0.4h11c0.2,0,0.4-0.2,0.4-0.4
				v-21.4c0-0.2-0.2-0.4-0.4-0.4H178.3z"/>
		</g>
		<g>
			<path fill="#FFFFFF" d="M180,144.4h-6.6l-1.9-9.2c-1.2-5.9-1.1-12,0.3-17.9l1.6-6.9h6.6l-1.6,6.9c-1.4,5.9-1.5,12-0.3,17.9
				L180,144.4z"/>
			<path fill="#E30011" d="M181.3,145.4h-8.8l-2.1-10.1c-1.3-6-1.2-12.4,0.3-18.4l1.8-7.7h8.8l-2,8.2c-1.4,5.7-1.4,11.7-0.3,17.4
				L181.3,145.4z M174.2,143.3h4.5l-1.6-7.9c-1.3-6-1.2-12.4,0.3-18.4l1.3-5.6h-4.4l-1.4,6.1c-1.4,5.7-1.4,11.7-0.3,17.4
				L174.2,143.3z"/>
		</g>
		<polygon fill="#E30011" points="119.3,133.8 117.4,130.8 102,140.2 102,125.7 119.3,115.2 117.4,112.1 61.2,146.5 68.4,146.5 
			85.2,136 85.2,146.5 88.6,146.5 88.6,134.1 88.3,134.1 98.4,127.9 98.4,142.5 92.8,146.1 99.7,146 		"/>
		<path fill="#E30011" d="M113,146h-3.6v-18c0-4.1,3.7-7.5,8.2-7.5h0.8v3.6h-0.8c-2.5,0-4.6,1.7-4.6,3.9V146z"/>
		
			<rect x="147.5" y="131.9" transform="matrix(0.7071 0.7071 -0.7071 0.7071 141.5719 -75.7487)" fill="#E30011" width="29.5" height="2.1"/>
	</g>
</g>
<g id="Слой_4" display="none">
	
		<rect x="-1.3" y="-19.8" display="inline" fill="none" stroke="#E84918" stroke-width="0.25" stroke-miterlimit="10" width="213.4" height="166.7"/>
	
		<rect x="-1.3" y="147.2" display="inline" fill="none" stroke="#E84918" stroke-width="0.25" stroke-miterlimit="10" width="213.4" height="311"/>
</g>
</svg>
