<?xml version="1.0" encoding="utf-8"?>
<!-- Generator: Adobe Illustrator 19.1.0, SVG Export Plug-In . SVG Version: 6.00 Build 0)  -->
<svg version="1.1" id="Слой_1" xmlns="http://www.w3.org/2000/svg" xmlns:xlink="http://www.w3.org/1999/xlink" x="0px" y="0px"
	 viewBox="0 0 221.8 208.4" style="enable-background:new 0 0 221.8 208.4;" xml:space="preserve">
<style type="text/css">
	.st0{fill-rule:evenodd;clip-rule:evenodd;}
</style>
<g>
	<path d="M199.7,61.7L199.7,61.7C199.7,27.7,172,0,138,0H78.4c-34,0-61.7,27.6-61.7,61.6v1.7C7,67.2,0,76.7,0,87.9
		c0,12.6,6,21.4,16.8,24.8v26.9c-5,4.2-8.1,10.4-8.1,17.4v3.2c0,12.6,10.2,22.8,22.8,22.8h3.4c0.1,0.1,0.1,0.2,0.2,0.4l10.1,19.5
		c1.1,2.1,2.9,5.7,7.1,5.7h0c2.6,0,5-1.5,6.2-3.9l11.2-21.6h84.8c0.2,0.3,0.3,0.6,0.5,0.9l9.9,19c1,2,2.9,5.7,7.1,5.7
		c2.6,0,4.9-1.5,6.2-3.9l11.4-22.1c10.4-2.1,18.3-11.3,18.3-22.3v-3.2c0-4.8-1.5-9.3-4.1-13v-31.3c11.3-3.4,18.1-12.5,18.1-24.8
		C221.8,73.9,212.5,63.1,199.7,61.7L199.7,61.7z M191.2,168.7c-1.7,1.2-3.7,1.9-5.9,2c-0.1,0-0.2,0-0.4,0H31.4
		c-5.8,0-10.6-4.7-10.6-10.6v-3.2c0-2.5,0.9-4.7,2.3-6.5c0.2-0.3,0.4-0.5,0.6-0.7c0.8-0.8,1.7-1.5,2.7-2.1c1.5-0.8,3.2-1.3,4.9-1.3
		H185c0.5,0,1,0.1,1.4,0.1c2.4,0.3,4.6,1.5,6.3,3.2c0.2,0.2,0.4,0.5,0.6,0.7c1.4,1.8,2.3,4,2.3,6.5v3.2
		C195.6,163.6,193.9,166.7,191.2,168.7L191.2,168.7z M175.5,182.9l-3.7,7.1l-3.7-7.1H175.5z M55.9,182.9l-3.7,7.1l-3.7-7.1H55.9z
		 M199.7,101.1c-0.9,0.2-1.8,0.5-2.8,0.6l-5.3,0.7v32.7c-0.4-0.1-0.8-0.2-1.2-0.3c-1.5-0.4-3-0.6-4.6-0.6c-0.2,0-0.5,0-0.7,0H31.4
		c-0.2,0-0.5,0-0.7,0c-0.6,0-1.2,0-1.8,0.1v-31.9l-5.3-0.7c-0.9-0.1-1.9-0.3-2.9-0.6c-1.4-0.4-2.8-1-4.1-2
		c-2.6-1.9-4.6-5.2-4.6-11.3c0-4.1,1.8-7.7,4.6-10.3c1.2-1.1,2.6-2,4.1-2.7c1.7-0.7,3.6-1.1,5.5-1.1c1,0,1.8,0.1,2.6,0.3
		c7.5,1.7,8.1,10.8,8.1,13.8v33.6l68.6-3.6h16.6l57,3.6V87.9c0-4.6,3.6-8.8,8.1-11.4c1.3-0.8,2.7-1.3,4.1-1.8
		c1.7-0.6,3.5-0.9,5.2-0.9c1,0,2,0.1,2.9,0.3c5.9,1.3,9.9,6.7,9.9,13.8C209.6,92,208.2,98.7,199.7,101.1L199.7,101.1z M187.5,61.6
		v1.5c-10.8,3.6-20.3,13-20.3,24.7v20.6l-44.5-2.8h-17.4l-56,2.9V87.9c0-14.7-8.1-24.9-20.3-26.2v-0.1c0-27.3,22.2-49.5,49.5-49.5
		H138C165.3,12.2,187.5,34.4,187.5,61.6L187.5,61.6z M187.5,61.6"/>
	<path d="M86.5,53.5c7.9,0,7.9-12.2,0-12.2C78.7,41.3,78.7,53.5,86.5,53.5L86.5,53.5z M86.5,53.5"/>
	<path d="M129.2,52.8c7.9,0,7.9-12.2,0-12.2C121.3,40.6,121.3,52.8,129.2,52.8L129.2,52.8z M129.2,52.8"/>
	<path d="M86.5,86c7.9,0,7.9-12.2,0-12.2C78.7,73.8,78.7,86,86.5,86L86.5,86z M86.5,86"/>
	<path d="M129.2,85.4c7.9,0,7.9-12.2,0-12.2C121.3,73.2,121.3,85.4,129.2,85.4L129.2,85.4z M129.2,85.4"/>
</g>
</svg>
