<?xml version="1.0" encoding="utf-8"?>
<!-- Generator: Adobe Illustrator 19.1.0, SVG Export Plug-In . SVG Version: 6.00 Build 0)  -->
<svg version="1.1" id="Слой_1" xmlns="http://www.w3.org/2000/svg" xmlns:xlink="http://www.w3.org/1999/xlink" x="0px" y="0px"
	 viewBox="0 0 202 197.1" style="enable-background:new 0 0 202 197.1;" xml:space="preserve">
<style type="text/css">
	.st0{fill-rule:evenodd;clip-rule:evenodd;}
</style>
<g>
	<path class="st0" d="M47.9,41.6c-6.7,0-12.1,5.4-12.1,12.1c0,6.7,5.4,12.1,12.1,12.1c6.7,0,12.1-5.4,12.1-12.1
		C60,47,54.6,41.6,47.9,41.6L47.9,41.6z M47.9,84.7c-6.7,0-12.1,5.4-12.1,12.1c0,6.7,5.4,12.1,12.1,12.1c6.7,0,12.1-5.4,12.1-12.1
		C60,90.1,54.6,84.7,47.9,84.7L47.9,84.7z M47.9,128.7c-6.7,0-12.1,5.4-12.1,12.1c0,6.7,5.4,12.1,12.1,12.1
		c6.7,0,12.1-5.4,12.1-12.1C60,134.1,54.6,128.7,47.9,128.7L47.9,128.7z M76,61.8h76.4c4.5,0,8.1-3.6,8.1-8.1c0-4.4-3.6-8-8.1-8H76
		c-4.4,0-8.1,3.6-8.1,8C68,58.2,71.6,61.8,76,61.8L76,61.8z M152.4,88.7H76c-4.4,0-8.1,3.6-8.1,8.1c0,4.4,3.6,8,8.1,8h76.4
		c4.5,0,8.1-3.6,8.1-8C160.5,92.3,156.9,88.7,152.4,88.7L152.4,88.7z M152.4,132.8H76c-4.4,0-8.1,3.6-8.1,8c0,4.5,3.6,8.1,8.1,8.1
		h76.4c4.5,0,8.1-3.6,8.1-8.1C160.5,136.3,156.9,132.8,152.4,132.8L152.4,132.8z M152.4,120.9"/>
</g>
<path d="M188.5,197.1H13.4C6,197.1,0,191,0,183.6V13.4C0,6,6,0,13.4,0h175.1c7.4,0,13.4,6,13.4,13.4v170.2
	C202,191,195.9,197.1,188.5,197.1z M14,183.1h174V14H14V183.1z"/>
</svg>
