<?xml version="1.0" encoding="utf-8"?>
<!-- Generator: Adobe Illustrator 19.1.0, SVG Export Plug-In . SVG Version: 6.00 Build 0)  -->
<svg version="1.1" id="Слой_1" xmlns="http://www.w3.org/2000/svg" xmlns:xlink="http://www.w3.org/1999/xlink" x="0px" y="0px"
	 viewBox="0 0 207.2 197.5" style="enable-background:new 0 0 207.2 197.5;" xml:space="preserve">
<style type="text/css">
	.st0{fill-rule:evenodd;clip-rule:evenodd;}
</style>
<g>
	<path d="M35.7,197.5h145.2c1.1,0,2.2-0.2,3.1-0.7c1-0.5,23.1-11.5,23.1-33.7V49.7c0-4-3.3-7.3-7.3-7.3h-25.4V7.3
		c0-4-3.3-7.3-7.3-7.3H7.3C3.3,0,0,3.3,0,7.3v154.2c0,0.5,0,1.1,0.1,1.6C0.5,164.5,8.1,197.5,35.7,197.5L35.7,197.5z M14.5,14.5
		h145.4v136.9c0,4,3.3,7.3,7.3,7.3c4,0,7.3-3.3,7.3-7.3V56.9h18.2v106.1c0,10.7-9.9,17.7-13.7,19.9H35.7
		c-14.3,0-20.1-18.5-21.2-22.4V14.5z M14.5,14.5"/>
	<path d="M84.8,46c0-4-3.3-7.3-7.3-7.3H43.6c-4,0-7.3,3.3-7.3,7.3v38.8c0,4,3.3,7.3,7.3,7.3h33.9c4,0,7.3-3.3,7.3-7.3V46z
		 M50.9,53.3h19.4v24.2H50.9V53.3z M50.9,53.3"/>
	<path d="M41.2,159.9h94.5c4,0,7.3-3.3,7.3-7.3c0-4-3.3-7.3-7.3-7.3H41.2c-4,0-7.3,3.3-7.3,7.3C33.9,156.7,37.2,159.9,41.2,159.9
		L41.2,159.9z M41.2,159.9"/>
	<path d="M42.4,124.8h92.1c4,0,7.3-3.3,7.3-7.3c0-4-3.3-7.3-7.3-7.3H42.4c-4,0-7.3,3.3-7.3,7.3C35.1,121.5,38.4,124.8,42.4,124.8
		L42.4,124.8z M42.4,124.8"/>
	<path d="M107.8,54.5h27.9c4,0,7.3-3.3,7.3-7.3c0-4-3.3-7.3-7.3-7.3h-27.9c-4,0-7.3,3.3-7.3,7.3C100.6,51.3,103.8,54.5,107.8,54.5
		L107.8,54.5z M107.8,54.5"/>
	<path d="M107.8,89.7h27.9c4,0,7.3-3.3,7.3-7.3c0-4-3.3-7.3-7.3-7.3h-27.9c-4,0-7.3,3.3-7.3,7.3C100.6,86.4,103.8,89.7,107.8,89.7
		L107.8,89.7z M107.8,89.7"/>
</g>
</svg>
